<svg xmlns="http://www.w3.org/2000/svg" viewBox="0 0 840 520" role="img" aria-label="Cerebellum and higher cognition">
  <defs>
    <linearGradient id="bg" x1="90" x2="750" y1="45" y2="485" gradientUnits="userSpaceOnUse">
      <stop stop-color="#eef8f9"/>
      <stop offset="1" stop-color="#e7f0f7"/>
    </linearGradient>
    <linearGradient id="cerebellum" x1="255" x2="590" y1="126" y2="315" gradientUnits="userSpaceOnUse">
      <stop stop-color="#ffffff"/>
      <stop offset="1" stop-color="#dff3f6"/>
    </linearGradient>
    <linearGradient id="accent" x1="230" x2="620" y1="120" y2="410" gradientUnits="userSpaceOnUse">
      <stop stop-color="#1f7a8c"/>
      <stop offset="1" stop-color="#58b9c4"/>
    </linearGradient>
    <filter id="shadow" x="-20%" y="-20%" width="140%" height="140%">
      <feDropShadow dx="0" dy="16" stdDeviation="16" flood-color="#173b4a" flood-opacity=".16"/>
    </filter>
  </defs>

  <rect width="840" height="520" rx="42" fill="url(#bg)"/>
  <circle cx="158" cy="110" r="70" fill="#fff" opacity=".48"/>
  <circle cx="696" cy="406" r="98" fill="#fff" opacity=".42"/>

  <path d="M170 356c58-76 147-118 250-118s192 42 250 118" fill="none" stroke="#b7dce3" stroke-width="16" stroke-linecap="round"/>
  <path d="M218 405c49-52 117-80 202-80s153 28 202 80" fill="none" stroke="#86c3cb" stroke-width="13" stroke-linecap="round"/>
  <path d="M292 445c34-31 77-47 128-47s94 16 128 47" fill="none" stroke="#53b4bf" stroke-width="10" stroke-linecap="round"/>

  <g filter="url(#shadow)">
    <path d="M244 220c0-48 39-88 92-88 32 0 61 15 79 39 18-24 47-39 79-39 53 0 92 40 92 88 0 72-69 116-171 116s-171-44-171-116Z" fill="url(#cerebellum)" stroke="url(#accent)" stroke-width="12" stroke-linejoin="round"/>
    <path d="M415 171c-15 25-22 52-22 82s7 57 22 82c15-25 22-52 22-82s-7-57-22-82Z" fill="#f8fcfd" stroke="#1f7a8c" stroke-width="7" stroke-linejoin="round"/>

    <path d="M300 214c24-30 54-47 91-52m-86 88c31-19 61-30 91-32m-72 69c24-11 48-17 72-18" fill="none" stroke="#19485a" stroke-width="8" stroke-linecap="round"/>
    <path d="M530 214c-24-30-54-47-91-52m86 88c-31-19-61-30-91-32m72 69c-24-11-48-17-72-18" fill="none" stroke="#19485a" stroke-width="8" stroke-linecap="round"/>

    <path d="M335 151c-18 20-28 48-29 81m52-76c-9 24-13 49-10 75m-34 30c-17 11-31 25-41 42m75-18c-16 10-29 21-39 35" fill="none" stroke="#69c0c9" stroke-width="6" stroke-linecap="round"/>
    <path d="M495 151c18 20 28 48 29 81m-52-76c9 24 13 49 10 75m34 30c17 11 31 25 41 42m-75-18c16 10 29 21 39 35" fill="none" stroke="#69c0c9" stroke-width="6" stroke-linecap="round"/>
  </g>

  <g fill="#19485a" opacity=".82">
    <circle cx="642" cy="146" r="7"/>
    <circle cx="675" cy="188" r="5"/>
    <circle cx="608" cy="200" r="5"/>
  </g>
</svg>
