<svg xmlns="http://www.w3.org/2000/svg" viewBox="0 0 160 160" role="img" aria-labelledby="title desc">
  <title id="title">Astrocat</title>
  <desc id="desc">A friendly cat wearing a space helmet.</desc>
  <circle cx="80" cy="80" r="76" fill="#e9fbfb"/>
  <circle cx="80" cy="78" r="58" fill="#ffffff" stroke="#4a9f97" stroke-width="6"/>
  <path d="M40 70c2-22 18-38 40-38s38 16 40 38v32c0 18-18 30-40 30s-40-12-40-30V70z" fill="#f5b65b"/>
  <path d="M52 54l10-24 15 19zM108 54 98 30 83 49z" fill="#f5b65b"/>
  <path d="M57 52l6-13 8 10zM103 52l-6-13-8 10z" fill="#ffe6af"/>
  <circle cx="62" cy="82" r="8" fill="#123d4a"/>
  <circle cx="98" cy="82" r="8" fill="#123d4a"/>
  <circle cx="65" cy="79" r="2.5" fill="#ffffff"/>
  <circle cx="101" cy="79" r="2.5" fill="#ffffff"/>
  <path d="M78 92h4l-2 4z" fill="#7e4e2f"/>
  <path d="M70 103c5 5 15 5 20 0" fill="none" stroke="#7e4e2f" stroke-width="4" stroke-linecap="round"/>
  <path d="M50 95c-8-2-14-5-19-9M51 103c-9 1-16 1-24-1M110 95c8-2 14-5 19-9M109 103c9 1 16 1 24-1" fill="none" stroke="#7e4e2f" stroke-width="3" stroke-linecap="round"/>
  <path d="M45 126c9 13 61 13 70 0l-8 20H53z" fill="#0f6c6d"/>
  <circle cx="80" cy="136" r="8" fill="#fff6d7"/>
  <path d="M44 122c-10-10-16-24-16-40 0-31 23-56 52-56s52 25 52 56c0 16-6 30-16 40" fill="none" stroke="#9ed8d3" stroke-width="5" stroke-linecap="round"/>
  <path d="M30 35l6 10 11 2-8 8 2 11-11-5-10 5 2-11-8-8 11-2z" fill="#f4d35e"/>
</svg>
